<?xml version="1.0" encoding="utf-8"?>
<!DOCTYPE svg PUBLIC "-//W3C//DTD SVG 1.0//EN" "http://www.w3.org/TR/2001/REC-SVG-20010904/DTD/svg10.dtd">
<svg version="1.0" xmlns="http://www.w3.org/2000/svg" width="1099px" height="227px" viewBox="0 0 1099 227" preserveAspectRatio="xMidYMid meet">
 <g fill="#fffefe">
  <path d="M0 113.5 l0 -113.5 549.5 0 549.5 0 0 113.5 0 113.5 -549.5 0 -549.5 0 0 -113.5z m150.9 107.5 c4.7 -1.3 10.8 -5.7 12.9 -9.2 0.9 -1.7 3.3 -3.7 5.2 -4.6 3.1 -1.4 3.3 -1.6 1.3 -1.9 -2.2 -0.4 -2.3 -0.8 -2.3 -11.6 l0 -11.2 3.5 -2.2 c2.1 -1.4 5 -2.3 7.4 -2.3 l4 0 0.4 6.3 c0.2 4.7 0.4 3.8 0.5 -3.5 l0.2 -9.8 -3.6 0 -3.6 0 0.6 -8.7 c1.5 -19.9 1.3 -24.3 -1.7 -30.8 -1.5 -3.2 -3.9 -7.4 -5.2 -9.1 l-2.5 -3.3 0 -29.8 c0 -16.6 -0.5 -31.4 -1 -33.4 -1.4 -4.9 -7.1 -11.3 -12.2 -13.5 -3.8 -1.7 -7.9 -2 -35.8 -2.4 l-31.4 -0.5 -1.1 -4.5 -1.1 -4.5 -1.8 5.4 -1.8 5.3 -5.2 -0.6 c-2.8 -0.3 -9.3 -0.6 -14.3 -0.6 l-9.3 0 0 -3.2 0 -3.2 -2.5 3.3 c-1.3 1.9 -4.4 4.3 -6.7 5.3 -5.4 2.4 -8.4 5.2 -11.1 10.3 -2.2 4 -2.2 4.5 -2.5 76.5 -0.3 79 -0.4 76.9 5.5 84.6 1.5 2.1 5 4.7 7.8 6 l5 2.4 49.5 0 c29.3 0 50.9 -0.4 52.9 -1z m186.9 -70 c5.1 -3.8 6.6 -8.1 7 -21 0.5 -13.1 -0.8 -20.7 -4.2 -24.2 -6.4 -6.5 -12.9 -11.8 -15.2 -12.4 -3.6 -0.9 -9.4 0.2 -12.4 2.4 -1.4 1 -3.5 3.8 -4.7 6.2 -2 3.9 -2.3 5.9 -2.3 17.1 0 6.9 0.5 14.1 1.2 16 1.3 4 10.8 14.7 15.2 17.2 4.2 2.3 11.2 1.8 15.4 -1.3z m242.9 1.9 c4.2 -1.5 9.2 -6.8 10.3 -10.9 0.5 -1.9 1 -8.9 1 -15.5 -0.1 -13 -1.5 -19 -5 -21.5 -1.2 -0.8 -3.8 -3.2 -5.8 -5.4 -2 -2.1 -4.9 -4.4 -6.4 -5.2 -6.2 -3.2 -14.2 -0.8 -18.5 5.7 -2.6 4 -2.8 5 -3.1 16.9 -0.5 15.8 0.6 20 6.4 25.9 2.4 2.4 4.4 4.7 4.4 5.1 0 1 4.9 4.3 7.5 5.2 3.1 1 6.1 0.9 9.2 -0.3z m-326.7 -11.3 c0 -7.1 0.4 -10.7 1.3 -11.4 0.6 -0.5 4.8 -1.1 9.3 -1.3 6.9 -0.4 8.6 -0.8 11.6 -3.1 2.2 -1.7 4.3 -4.6 5.3 -7.2 1.7 -4.5 1.7 -4.5 -0.9 -9.1 -1.5 -2.5 -3 -4.5 -3.5 -4.5 -0.4 0 -3 -2.2 -5.7 -4.9 -3.4 -3.4 -6.4 -5.3 -9.4 -6.1 -5.2 -1.4 -14.5 -0.9 -16.3 0.9 -1.3 1.3 -2.3 41.8 -1.2 47.9 0.5 2.6 1.2 3.4 3.4 3.8 2.2 0.5 3 1.3 3.5 3.6 1.2 6.1 2.6 1.4 2.6 -8.6z m146.5 10.4 c-0.3 -0.5 -1.5 -1 -2.6 -1 -1.1 0 -2.2 -0.8 -2.5 -1.7 -1.4 -4.5 -2 -4.8 -10 -5.3 l-7.9 -0.5 -0.5 -21.5 -0.5 -21.5 -3 -0.5 c-1.9 -0.3 -3.1 -1.2 -3.3 -2.5 -0.6 -2.9 -2.2 -4.3 -2.3 -1.9 -0.6 9.3 0.5 48.1 1.3 49.2 0.6 0.6 2.1 1.2 3.4 1.2 1.5 0 2.4 0.6 2.4 1.6 0 0.8 0.5 2.4 1 3.5 1 1.7 2.2 1.9 13.1 1.9 7.8 0 11.8 -0.4 11.4 -1z m36.3 -4.5 c0.7 -2.2 1.5 -4.5 2 -5.2 0.4 -0.7 4.3 -1.3 9.7 -1.5 8.8 -0.3 8.9 -0.3 10.2 2.4 0.8 1.5 2.2 3 3.3 3.3 1.1 0.4 2.7 2 3.5 3.6 1.6 2.9 2.8 4 2 1.7 -0.3 -1.2 -4.3 -14 -12.5 -40.7 -2.8 -9.1 -3.5 -10.5 -6 -11.4 -1.6 -0.6 -3.4 -2.2 -4 -3.6 -1.1 -2.3 -1.3 -2.4 -2.2 -0.8 -0.8 1.6 -15.8 49 -15.8 50.2 0 0.3 1.4 0.5 3 0.5 2.6 0 3 0.4 3 2.8 0 5.8 2 5.1 3.8 -1.3z m188.2 -21.2 c0 -25.8 -0.3 -27.3 -5.1 -27.3 -1.2 0 -2.1 -0.9 -2.5 -2.5 -1.6 -6.6 -2.4 0.7 -2.4 23 0 26 0.3 27.5 5.1 27.5 1.3 0 1.9 0.7 1.9 2.3 0 2.9 1.1 4.2 2.2 2.5 0.4 -0.7 0.8 -12.2 0.8 -25.5z m51.3 25.3 c3.9 -1.6 7.2 -5.1 8.7 -9.1 1.5 -3.9 1.4 -29.9 -0.1 -32.8 -1.7 -3.3 -11.1 -12.3 -15 -14.2 -4.9 -2.6 -16.2 -3.2 -19.4 -1.1 l-2.5 1.6 0 23.8 c0 25.2 0.2 26.2 4.7 26.2 1.5 0 2.3 0.6 2.3 1.7 0 3.8 3 5.3 10.7 5.3 4 0 8.8 -0.6 10.6 -1.4z m163.8 -3.9 c1.8 -6.9 3.1 -7.7 12.3 -7.7 8 0 8.1 0 9.9 3.1 0.9 1.7 2.6 3.3 3.6 3.6 1.1 0.3 2.5 1.8 3.2 3.4 0.6 1.6 1.4 2.8 1.6 2.5 0.5 -0.5 -2 -8.8 -11 -37.6 -3.9 -12.4 -4.5 -13.6 -7.3 -14.9 -1.7 -0.7 -3.5 -2.5 -4 -4 -1 -2.5 -1 -2.5 -2.1 -0.6 -0.9 1.7 -15.2 46.3 -15.6 48.9 -0.1 0.6 1.2 1.2 2.8 1.5 2.5 0.5 3.1 1.1 3.3 3.9 0.4 4.2 1.8 3.3 3.3 -2.1z m151.4 4.3 c-0.3 -0.5 -1.9 -1 -3.5 -1 -2.5 0 -2.9 -0.4 -3.2 -3.2 l-0.3 -3.3 -9.5 -0.5 -9.5 -0.5 -0.3 -5.7 c-0.5 -9 0.4 -9.8 9.9 -9.8 5.1 0 7.8 -0.4 7.4 -1 -0.3 -0.5 -1.4 -1 -2.4 -1 -1.3 0 -2 -1 -2.5 -3 -0.6 -3.3 -3.6 -5 -8.5 -5 -2.7 0 -2.9 -0.3 -3.6 -5.5 -1.2 -9.6 -1.3 -9.5 13 -9.5 6.8 0 12.6 -0.4 13 -0.9 0.3 -0.5 -0.7 -1.1 -2.2 -1.3 -2 -0.2 -2.9 -0.9 -3.1 -2.6 -0.6 -4.4 -4 -5.4 -16.7 -5 -8.9 0.2 -11.8 0.6 -12.5 1.8 -1.3 2.1 -1.3 46.6 0 49.1 0.6 1.1 2.1 1.9 3.5 1.9 1.9 0 2.5 0.5 2.5 2.3 0 1.3 0.5 2.8 1.2 3.5 1.5 1.5 28.2 1.7 27.3 0.2z m35 -20.7 c0.5 -2 1.2 -2.3 4.9 -2.3 l4.4 0 5.4 8.5 c2.9 4.7 6.1 8.8 7.1 9.1 0.9 0.3 2.4 1.9 3.2 3.5 0.9 1.6 1.8 2.9 2.1 2.9 0.7 0 -1.4 -3.7 -5.8 -10.2 -4.8 -7.1 -5.2 -12.6 -1.2 -15.5 l2.5 -1.9 -4 0.4 c-4.1 0.4 -4.1 0.4 -4.1 -3.1 l0 -3.5 -7.2 0.2 -7.3 0.1 -0.3 -6 c-0.5 -10.5 -0.6 -10.5 9.9 -10.5 l9.1 0 -0.4 6 -0.3 6 3.8 0 c3.5 0 3.7 0.2 3.8 3.3 l0.1 3.2 1.4 -3.3 c0.8 -1.8 1.1 -4.4 0.8 -5.8 -0.8 -3.2 -11.8 -14.6 -16.2 -16.8 -6.7 -3.4 -19.3 -3.3 -20.7 0.2 -1.1 3 -0.6 48.4 0.7 49.9 0.6 0.7 2.1 1.3 3.4 1.3 1.8 0 2.4 0.5 2.4 2.3 0 1.3 0.3 2.7 0.8 3.1 0.4 0.4 0.8 -3.7 0.9 -9.1 0.2 -5.4 0.5 -10.8 0.8 -12z m-525.4 20.5 c0.1 -0.2 0.4 -5.2 0.8 -11.3 l0.6 -11 4.4 0 4.4 0 5 8 c2.7 4.4 5.5 8.2 6 8.4 0.6 0.2 2.2 1.6 3.5 3 3.2 3.3 1.7 0.5 -3.2 -6.4 -4.1 -5.6 -4.8 -11.5 -1.9 -14.7 1.5 -1.7 1.4 -1.8 -1.5 -1.8 -3 0 -3.2 -0.2 -3.2 -3.5 l0 -3.5 -6 0.7 c-7.9 0.8 -9 -0.2 -9 -8.1 0 -3.3 0.4 -6.7 0.8 -7.3 0.5 -0.8 4.4 -1.5 9.6 -1.9 l8.8 -0.7 -0.4 7.1 -0.3 7.2 3.4 0 c3.3 0 3.3 0.1 2.9 4 -0.2 2.2 -0.2 4 0 4 0.2 0 1.2 -2.1 2.3 -4.6 2.7 -6 1.6 -9 -5.9 -16.4 -7.7 -7.7 -11 -9.2 -19.7 -9.4 -11 -0.2 -10.5 -1.6 -10.5 27.1 l0 24.4 3.5 1.5 c2.3 0.9 3.5 2.1 3.5 3.4 0 1.6 1.6 2.9 2.1 1.8z m264 -20.6 c3.5 -0.3 3.6 -0.2 7 7 2.4 5.2 4 7.4 5.5 7.6 1.2 0.2 2.8 1.7 3.6 3.5 l1.6 3.2 3.1 -6.7 c3 -6.5 3.3 -6.8 6.6 -6.8 2.8 0 3.5 0.4 3.5 1.9 0 2.7 2.7 5.1 5.6 5.1 1.9 0 2.4 0.5 2.4 2.5 0 1.4 0.5 2.5 1 2.5 0.6 0 1 -8.8 1 -24.3 0 -25.6 -0.2 -26.7 -4.6 -26.7 -1.6 0 -2.4 -0.7 -2.6 -2.2 -0.2 -1.3 -0.7 -2.2 -1.3 -2.2 -0.5 0.1 -4.4 8 -8.5 17.5 -4.1 9.6 -7.9 17.7 -8.5 18.1 -0.5 0.4 -2.5 0.8 -4.2 0.8 -2.7 0 -3.4 -0.5 -3.9 -2.7 -1.1 -4 -9 -23.1 -10.9 -25.9 -0.8 -1.3 -2.4 -2.4 -3.4 -2.4 -1.1 0 -2.3 -1.2 -3.1 -3 -0.7 -1.6 -1.6 -2.7 -2.1 -2.4 -1.3 0.8 -1.1 46.1 0.1 48.5 0.6 1.1 2.1 1.9 3.5 1.9 2 0 2.5 0.5 2.5 2.3 0 1.3 0.3 2.7 0.8 3.1 0.4 0.4 0.9 -3.9 1.2 -9.6 l0.5 -10.3 3.6 -0.3z m139.9 12 c0 -7.9 1.9 -11.2 6.5 -11.2 2.8 0 3.7 0.7 6.9 5.5 2 3 5.8 7.7 8.4 10.3 2.6 2.6 4 3.7 3.2 2.5 -13.2 -19.3 -14 -20.7 -14 -24.3 0 -3.4 2.1 -7.3 8.9 -16 2.4 -3.2 2.7 -3.8 1 -2.2 -1.5 1.3 -3.8 2.2 -5.7 2.2 -3 0 -3.2 -0.3 -3.2 -3.3 0 -1.8 0.3 -3.7 0.8 -4.3 0.4 -0.5 -0.7 0.6 -2.3 2.4 -2.5 2.8 -3.6 3.3 -6.5 3 -2.9 -0.2 -3.6 -0.8 -3.8 -2.8 -0.5 -3.4 -2 -5 -4.7 -5 -1.7 0 -2.4 -0.7 -2.9 -3.1 -0.3 -1.7 -1 -2.8 -1.6 -2.4 -0.6 0.4 -1 9.5 -1 24.6 0 22.6 0.1 24 2 25.9 1.1 1.1 2.9 2 4 2 1.5 0 2 0.7 2 2.8 0 2.1 0.2 2.4 1 1.2 0.5 -0.8 1 -4.3 1 -7.8z m-721.3 -82.4 c-0.1 -9 -0.3 -1.9 -0.3 15.7 0 17.6 0.2 24.9 0.3 16.3 0.2 -8.6 0.2 -23 0 -32z m-20.2 -33.9 c-5.9 -1.2 -59.5 -1.1 -59.5 0.1 0 0.6 11.2 1 31.8 0.9 19.6 -0.1 30.2 -0.4 27.7 -1z"/>
  <path d="M141.1 160.9 c-2.7 -5.7 -4.2 -7.6 -7.9 -10 -2.6 -1.6 -6.4 -3.4 -8.4 -4 -3.6 -0.9 -3.8 -1.2 -3.8 -5 0 -2.9 0.5 -4.1 1.8 -4.5 9.9 -3.2 17 -9.3 19.9 -17.3 1.7 -4.8 2 -5.1 5.3 -5.1 3.3 0 3.6 0.3 6.7 6.9 3.7 7.7 8.2 11.9 15.3 14.3 4.3 1.4 4.5 1.7 4.8 5.5 0.3 4.1 0.3 4.1 -4.6 5.7 -8.1 2.7 -13.8 8.6 -17.1 17.9 -0.9 2.3 -1.6 2.7 -4.8 2.6 -3.7 0 -3.9 -0.2 -7.2 -7z"/>
  <path d="M316.3 143.8 c-0.6 -0.8 -0.8 -8.1 -0.5 -18.6 0.5 -19.8 1 -21.2 8.6 -23.1 6.9 -1.7 9.3 -1.4 10 1.2 1 4 0.6 32.3 -0.5 35.7 -0.8 2.2 -2.2 3.7 -4.5 4.6 -4.1 1.7 -11.8 1.8 -13.1 0.2z"/>
  <path d="M563.9 144.4 c-1.5 -0.4 -1.6 -2.4 -1.2 -17.7 0.3 -9.6 1 -18.3 1.7 -19.7 1.6 -3.5 5.3 -5.1 11.6 -4.8 l5.5 0.3 0.3 16 c0.3 19.1 0 21.8 -3.4 24 -2.6 1.7 -11.4 2.8 -14.5 1.9z"/>
  <path d="M254.8 119.4 c-1 -1 -1 -13.6 0 -15.1 0.5 -0.8 4 -1.3 9.2 -1.5 l8.5 -0.3 0 6.2 c0 8.5 -2 10.6 -10.7 11.1 -3.5 0.2 -6.6 0 -7 -0.4z"/>
  <path d="M657.5 124.8 c0.4 -10.6 0.8 -19.9 1 -20.5 0.3 -0.9 3 -1.3 8.9 -1.3 6.7 0 8.5 0.3 9 1.6 1.1 2.8 0.6 30 -0.5 33.3 -1.5 4.2 -5.5 6.1 -12.9 6.1 l-6.1 0 0.6 -19.2z"/>
 </g>
 <g fill="#1d204f">
  <path d="M59.5 214.8 c-6.6 -1.2 -12.2 -5.2 -16 -11.3 l-3 -4.8 -0.3 -79.8 -0.2 -79.9 2.4 -0.6 c1.3 -0.3 3.7 -2.5 5.4 -4.8 3.3 -4.5 10.5 -9 16.2 -10.1 2.9 -0.5 3.9 -0.2 5.4 1.4 1.8 2 1.8 2.2 0.1 4.1 -1 1.1 -3 2 -4.4 2 -2.9 0 -9.1 3.4 -9.1 5 0 0.5 1 1 2.2 1 l2.1 0 -2 2.3 c-3.9 4.2 -4.3 6.2 -4.1 19.4 0.1 7.8 0.3 10.1 0.5 5.8 0.2 -3.9 0.9 -7.3 1.6 -7.7 2.3 -1.5 10.4 -0.9 11.1 0.8 0.3 0.9 0.6 30.4 0.6 65.7 0 60.3 0.2 64.4 1.9 68.2 2.1 4.6 5.4 7.9 9.4 9.4 1.8 0.7 17.1 1.1 43.5 1.1 38.8 0 40.9 -0.1 44.5 -2 l3.7 -2 0 2 c0 1.1 0.5 2 1 2 1.6 0 5.1 -3.9 6.6 -7.6 1.6 -3.8 1.9 -13.4 0.4 -13.4 -0.6 0 -2.6 1 -4.5 2.3 -2.5 1.6 -3.5 2.9 -3.5 4.9 0 3.8 -4.3 4.9 -20.7 5.5 -11.4 0.5 -14.1 0.3 -20 -1.5 -8.4 -2.6 -14.8 -6.6 -21.3 -13.3 -10.2 -10.8 -14.6 -23.6 -13.7 -40.4 0.7 -12.1 2.4 -18.3 7.5 -26.1 7.7 -11.7 17.1 -18.4 30.7 -21.9 10.9 -2.8 32.3 -1.5 36 2.2 2 1.9 2 9.7 0 11.3 -1.1 0.9 -3.3 1 -7.7 0.5 -19.7 -2.4 -28.8 -0.2 -39.2 9.6 -8.7 8.1 -13.1 17.5 -13 27.6 0.2 16.5 14.3 33.7 30.5 37.3 12.8 2.9 24 -0.6 35.2 -10.9 5.4 -5 5.8 -5.2 5.1 -2.6 -1.3 5 1.9 2.4 5.4 -4.6 4.8 -9.5 6.1 -18 4 -27.2 -0.9 -4 -1.9 -8.1 -2.3 -9.3 -0.9 -2.8 1.9 -5.8 4.4 -4.5 2.1 1.2 4.8 9.5 5.6 17.6 0.9 8.4 -1.5 19 -6.5 28.2 -3.9 7.2 -4 7.7 -4 17.1 0 8.1 -0.4 10.6 -2.4 14.8 -2.4 5.2 -9.4 12.1 -13.3 13 -1.2 0.3 -2.9 1.7 -3.8 3 l-1.5 2.4 -50.8 -0.1 c-27.9 -0.1 -52.9 -0.6 -55.7 -1.1z m-4.8 -60.1 c-0.1 -4.5 -0.3 -0.5 -0.3 8.8 0 9.4 0.2 13 0.3 8.2 0.2 -4.8 0.2 -12.5 0 -17z m0 -57.9 c-0.1 -6.2 -0.3 -1.2 -0.3 11.2 0 12.4 0.2 17.4 0.3 11.3 0.2 -6.2 0.2 -16.4 0 -22.5z"/>
  <path d="M922.9 150.1 c-2 -2.1 -5.4 -6.4 -7.5 -9.5 -3.5 -5.4 -3.9 -5.6 -5.2 -3.9 -1.3 1.7 -1.4 1.7 -2.9 -0.4 -2.6 -3.8 -3.3 -2.6 -3.3 5.3 0 7.3 -1.1 11.4 -3 11.4 -0.6 0 -1 -0.7 -1 -1.5 0 -0.8 -0.9 -1.5 -2 -1.5 -1.1 0 -2.9 -0.9 -4 -2 -1.9 -1.9 -2 -3.3 -2 -28.9 0 -26.5 0 -27 2.2 -28.5 2.8 -2 5.7 -0.5 6.5 3.5 0.3 1.6 1.2 2.9 1.9 2.9 1 0 1.4 1.3 1.4 4.3 l0 4.2 1.9 -2.4 1.8 -2.4 0.7 2.4 c0.6 2.3 0.8 2.3 4.4 -2.1 8.4 -10.1 10.5 -11.9 13 -11 3.3 1.4 2.8 4.6 -1.9 11.5 l-4.1 6 4.9 -5.3 c4.6 -5 6.3 -6.2 6.3 -4.3 0 0.5 -3.3 5.3 -7.4 10.7 l-7.4 9.9 2 2.7 c1 1.5 1.6 3.3 1.3 3.9 -0.7 1 0.6 3.2 8.6 15.1 4.4 6.4 4.8 8.9 1.9 11.8 -2.6 2.6 -2.8 2.5 -7.1 -1.9z"/>
  <path d="M1048 152.1 c-0.5 -1.1 -1.8 -2.2 -2.7 -2.5 -1 -0.3 -4.2 -4.4 -7.1 -9.1 -5.1 -8.1 -7.3 -10 -8.6 -7.2 -0.4 0.8 -0.8 0.9 -1.1 0.1 -0.3 -0.6 -1.2 -2 -2 -3 -1.3 -1.7 -1.4 -0.7 -1.5 9.2 0 7.2 -0.4 11.4 -1.2 12.2 -1.6 1.6 -2.8 1.5 -2.8 -0.3 0 -0.9 -0.9 -1.5 -2.4 -1.5 -1.3 0 -2.9 -0.6 -3.5 -1.4 -1.3 -1.6 -2 -51.5 -0.7 -55.3 0.9 -2.8 5.2 -3.7 15.4 -3.1 9.1 0.5 12.9 2.3 19.5 8.9 4.4 4.5 4.7 5.1 4.7 9.9 0 5.9 -2.6 11.8 -6.7 14.9 -2.6 2.1 -2.6 2.3 -1.1 4.9 0.8 1.5 1.3 3.2 1.1 3.9 -0.2 0.7 1.2 3.6 3.1 6.5 4 5.9 4.6 10.5 1.8 13.1 -2.4 2.2 -2.9 2.1 -4.2 -0.2z m0.1 -32.2 c0.5 -1.1 0.7 -1.9 0.3 -1.9 -1.1 0 -4.4 3.2 -4.4 4.1 0 1.4 3 -0.2 4.1 -2.2z m-8.3 -6.5 c1.2 -1.4 2.2 -3.6 2.2 -5 0 -1.9 -0.5 -2.4 -2.5 -2.4 -1.4 0 -2.5 -0.4 -2.5 -0.9 0 -1.4 -5.5 -3.3 -8.6 -2.9 -2.7 0.3 -2.9 0.6 -3.2 5.6 -0.3 4.6 -0.1 5.2 1.6 5.2 1.2 0 2.2 0.9 2.5 2.1 0.5 1.9 1.1 2.1 4.4 1.5 2.2 -0.4 4.8 -1.8 6.1 -3.2z"/>
  <path d="M248 151.6 c0 -0.7 -1.3 -1.6 -2.9 -1.9 -4.1 -0.8 -4.3 -2.4 -3.9 -31.9 0.2 -18.6 0.6 -25 1.6 -26 1.8 -1.8 16.6 -2.3 22.2 -0.8 3 0.8 6 2.7 8.9 5.7 2.5 2.4 5.3 4.9 6.3 5.4 1.4 0.7 1.8 2.2 1.8 6.2 -0.1 6.7 -2.8 12.7 -7.6 16.3 -3.3 2.5 -4.8 3 -12.3 3.4 l-8.6 0.5 -0.3 10.9 c-0.1 6.1 -0.8 11.6 -1.4 12.3 -1.4 1.7 -3.8 1.7 -3.8 -0.1z m19.3 -37.4 c1 -1.1 1.9 -3.5 2 -5.3 0.2 -2.8 -0.2 -3.4 -1.8 -3.4 -1.1 -0.1 -3.2 -0.8 -4.5 -1.8 -1.3 -0.9 -4.1 -1.7 -6.2 -1.7 l-3.8 0 0 5.5 c0 4.7 0.3 5.5 1.9 5.5 1.1 0 2.1 0.9 2.4 2.1 0.5 1.9 1.1 2.1 4.3 1.6 2.1 -0.4 4.6 -1.5 5.7 -2.5z"/>
  <path d="M310.4 147.2 c-2.8 -3.1 -5.6 -7.2 -6.2 -9.1 -1.9 -5.3 -1.6 -33.3 0.3 -37.9 3.2 -7.5 8.4 -10.5 18.2 -10.4 6 0 10.1 2.1 15 7.6 1.7 1.8 3.7 3.6 4.5 3.8 1 0.4 1.3 4.7 1.3 19.9 0 18.4 -0.1 19.6 -2.2 23 -1.3 2 -4.1 4.8 -6.3 6.3 -3.5 2.3 -4.9 2.6 -11.7 2.5 l-7.8 0 -5.1 -5.7z m16 -6.6 c4.6 -1.9 5.6 -5.5 5.6 -20 0 -13.6 -0.5 -16.7 -2.6 -15.9 -0.8 0.3 -2 0 -2.7 -0.5 -0.7 -0.6 -2.5 -1.5 -3.9 -2.1 -2.2 -0.8 -3.1 -0.6 -5.2 1 -2.6 2 -2.6 2.2 -2.6 15.4 0 12.8 1 18.5 3.3 18.5 0.5 0 0.7 0.6 0.4 1.4 -0.6 1.6 1.1 3.6 3 3.6 0.8 0 2.9 -0.6 4.7 -1.4z"/>
  <path d="M381.3 152.3 c-7.3 -0.3 -9.3 -0.7 -9.3 -1.8 0 -0.9 -1 -1.5 -2.4 -1.5 -1.3 0 -2.8 -0.6 -3.4 -1.2 -1.2 -1.6 -2.3 -52.4 -1.1 -55.5 1.5 -4 7.9 -2.5 7.9 1.9 0 1 0.7 2.1 1.5 2.4 1.3 0.5 1.5 3.7 1.5 20.5 0 18.8 0.1 19.9 1.9 19.9 1 0 2.1 0.9 2.4 2 0.5 1.8 1.4 2 7.9 2 7.7 0 9.8 0.9 9.8 4.2 0 1 0.7 2.1 1.5 2.4 3.8 1.5 -0.3 5.5 -5.3 5.2 -2 -0.1 -7.9 -0.4 -12.9 -0.5z"/>
  <path d="M430 150.9 c0 -1.1 -0.5 -1.7 -1 -1.4 -1.6 1 -4.8 -0.4 -5.5 -2.5 -0.5 -1.5 10.2 -38.2 15.1 -51.8 2.1 -5.8 4.7 -7 7.9 -3.8 1.4 1.4 2.5 2.9 2.5 3.3 0 0.5 1 1.3 2.2 1.8 1.8 0.8 3.4 4.9 9 22.5 6.4 20.4 7.9 28 6.2 32.4 -0.7 1.7 -4.4 2.2 -4.4 0.6 0 -0.5 -1.2 -1.5 -2.6 -2.3 -1.4 -0.7 -3.1 -2.4 -3.8 -3.8 -0.8 -1.5 -2 -2.3 -3.3 -2.2 -1.3 0.2 -2.3 -0.5 -2.6 -1.7 -0.4 -1.7 -1.4 -2 -6.5 -2 l-6.1 0 -1.6 5.8 c-1.6 5.2 -2.8 7.1 -4.7 7.2 -0.5 0 -0.8 -0.9 -0.8 -2.1z m14.3 -27.9 c-0.3 -1.1 -0.7 -2 -0.8 -2 -0.1 0 -0.5 0.9 -0.8 2 -0.3 1.2 0 2 0.8 2 0.8 0 1.1 -0.8 0.8 -2z"/>
  <path d="M496 152 c0 -0.5 -1.6 -1.6 -3.5 -2.4 l-3.5 -1.5 0 -27.4 c0 -24.4 0.2 -27.6 1.7 -28.8 1.1 -1 4.6 -1.4 11.7 -1.3 11.8 0 14.6 1.1 21.9 8.5 4.4 4.5 4.7 5.1 4.7 9.9 0 5.8 -1.8 10 -6.3 14.7 -2.9 3 -2.9 3.4 -1.4 5.1 0.9 1 1.4 2.7 1.1 3.7 -0.3 1.3 0.9 3.8 3.1 6.9 3.6 5.1 4.6 10.1 2.3 12.4 -1.5 1.5 -4.8 1.6 -4.8 0.2 0 -0.6 -1 -1.5 -2.3 -2.1 -1.3 -0.6 -4.5 -4.6 -7.1 -9 -5.5 -9 -6.4 -9.9 -8.1 -7.6 -1 1.4 -1.4 1.2 -3.1 -1.6 l-1.9 -3.2 -0.3 10.9 c-0.3 10.2 -1.1 13.6 -3.3 13.6 -0.5 0 -0.9 -0.4 -0.9 -1z m26.4 -31.6 c0.3 -0.8 0.2 -1.4 -0.2 -1.4 -1 0 -3.2 2.2 -3.2 3.2 0 1.2 2.8 -0.2 3.4 -1.8z m-7.6 -6.7 c3 -2.8 3.1 -8.7 0.2 -8.7 -1.2 0 -3.5 -0.7 -5.1 -1.6 -1.7 -0.8 -4.5 -1.4 -6.2 -1.2 -3.1 0.3 -3.2 0.5 -3.5 5.6 -0.3 4.5 -0.1 5.2 1.5 5.2 1 0 2.4 0.9 3.1 2.1 1.1 1.6 1.9 1.9 4.5 1.4 1.8 -0.4 4.2 -1.6 5.5 -2.8z"/>
  <path d="M561.4 151.5 c-0.3 -0.8 -2.5 -3.4 -4.9 -5.7 -5.9 -5.9 -6.7 -9.7 -6.3 -28.8 0.3 -15.2 0.4 -15.8 3.1 -19.9 3.5 -5.2 7.7 -7.1 15.7 -7.1 7 0 10.5 1.5 14.7 6.4 1.7 1.9 4.1 3.9 5.3 4.6 2.1 1.1 2.1 1.5 1.8 20.3 -0.3 18.1 -0.4 19.4 -2.7 23 -1.2 2.1 -3.9 4.9 -5.9 6.2 -3.2 2.2 -4.8 2.5 -12 2.5 -6.3 0 -8.4 -0.3 -8.8 -1.5z m14.3 -12.3 c3 -1.9 3.5 -5.2 3.1 -20.7 -0.2 -10.7 -0.6 -13 -1.8 -13.1 -0.8 0 -3.1 -1 -5 -2.2 -4.4 -2.7 -4.6 -2.7 -7.5 0.3 -2.4 2.3 -2.5 2.9 -2.5 15.4 0 12.4 1 18.1 3.2 18.1 0.5 0 0.7 0.9 0.3 1.9 -1 3.3 5.3 3.5 10.2 0.3z"/>
  <path d="M619 151.5 c0 -0.8 -0.9 -1.5 -1.9 -1.5 -4.9 0 -5.1 -1.2 -5.1 -30.5 0 -23.5 0.2 -27.6 1.6 -28.9 1.8 -1.9 2 -1.9 4.4 -0.6 1 0.5 2.1 2.1 2.4 3.5 0.4 1.4 1.3 2.5 2.2 2.5 2.2 0 1.7 54.6 -0.6 56 -2.1 1.4 -3 1.2 -3 -0.5z"/>
  <path d="M656.8 152.3 c-3.3 -0.3 -4.8 -0.9 -4.8 -1.9 0 -0.8 -1 -1.4 -2.3 -1.4 -4.6 0 -4.7 -0.8 -4.7 -29.2 l0 -26.8 2.5 -1.6 c2 -1.3 4.4 -1.6 12.3 -1.2 11.1 0.5 14.3 1.7 20.9 8.4 l4.3 4.2 0 17.8 c0 15.8 -0.2 18.2 -2 22 -4 8.1 -11.8 11 -26.2 9.7z m12.2 -12.8 c4 -2.1 5.1 -6.5 4.9 -19.6 -0.2 -12.5 -0.4 -13.9 -2.5 -13.9 -0.8 0 -2.7 -0.9 -4.3 -2.1 -2 -1.4 -3.9 -1.9 -6.7 -1.7 l-3.9 0.3 -0.3 17.3 c-0.2 16.7 -0.2 17.2 1.8 17.2 1.3 0 2 0.7 2 2 0 1.6 0.7 2 3 2 1.7 0 4.4 -0.7 6 -1.5z"/>
  <path d="M833.7 151 c-0.3 -1.2 -0.9 -2 -1.4 -1.7 -0.4 0.2 -1.9 0.1 -3.2 -0.4 -2 -0.8 -2.2 -1.4 -1.9 -4.7 0.4 -3.6 13.9 -47.2 16.1 -51.9 0.7 -1.6 1.9 -2.3 3.9 -2.3 2.4 0 3.2 0.6 4.1 3 0.7 1.8 2.1 3.3 3.4 3.6 1.8 0.5 2.8 2.6 5.8 12.2 2 6.5 5.2 16.7 7.1 22.8 3.9 12.2 4.2 18.9 1.1 20.8 -1.4 0.9 -2.1 0.7 -3 -0.5 -0.7 -0.8 -2 -1.8 -3 -2.2 -1 -0.4 -2.5 -2 -3.5 -3.7 -0.9 -1.6 -2.5 -3 -3.4 -3 -0.9 0 -2.1 -0.7 -2.6 -1.6 -0.6 -1.1 -2.2 -1.4 -6.7 -1.2 l-5.8 0.3 -1.6 4.7 c-0.9 2.6 -2.3 5.5 -3.2 6.3 -1.5 1.5 -1.7 1.5 -2.2 -0.5z"/>
  <path d="M970.8 152.3 c-8.7 -0.3 -10.8 -0.7 -10.8 -1.8 0 -0.9 -1 -1.5 -2.5 -1.5 -1.4 0 -2.9 -0.8 -3.5 -1.9 -1.3 -2.5 -1.3 -53 0 -55.1 0.7 -1.2 3.9 -1.6 15.5 -1.8 15.9 -0.4 19 0.4 19.7 5 0.2 1.3 0.9 2.2 1.6 2 1.6 -0.3 1.5 2.3 -0.1 3.6 -0.8 0.7 -6.7 1.3 -13.8 1.4 l-12.4 0.3 -0.3 4.8 c-0.3 4.5 -0.2 4.7 2.2 4.7 1.6 0 2.6 0.6 2.6 1.5 0 1 1 1.5 2.9 1.5 5.1 0 8.1 1.7 8.7 5 0.4 1.6 1.3 3 2 3 2.2 0 1.6 1.8 -1.1 3.6 -1.9 1.2 -3.8 1.4 -9.1 0.9 -7.6 -0.9 -8.4 -0.3 -8.4 5.8 0 3.2 0.3 3.7 2.4 3.7 1.7 0 2.3 0.5 2.2 1.8 -0.1 1.5 1 1.7 8.8 2 9.7 0.3 12 1.3 11.3 4.9 -0.3 1.7 0 2.3 1.4 2.3 2.4 0 2.4 1.2 0.1 3.3 -1.1 1 -3.2 1.6 -5.3 1.5 -1.9 -0.1 -8.2 -0.4 -14.1 -0.5z"/>
  <path d="M756 150.5 c0 -0.9 -0.9 -1.5 -2.5 -1.5 -1.4 0 -2.9 -0.8 -3.5 -1.9 -0.6 -1.2 -1 -12 -1 -28 0 -22.3 0.2 -26.2 1.6 -27.5 0.8 -0.9 1.8 -1.6 2 -1.6 1.8 0 4.3 2.4 5.4 4.9 0.7 1.7 1.6 2.9 2 2.6 2.4 -1.5 8.3 9.5 15.9 29.7 0.3 1 1.1 1.4 1.6 1 0.6 -0.4 4.4 -8.5 8.5 -18.1 7.5 -17.4 9.9 -20.9 13.4 -19.5 0.9 0.4 2 1.9 2.3 3.5 0.3 1.6 1.2 2.9 1.9 2.9 1.9 0 2.1 51.9 0.2 53.8 -1.6 1.6 -2.8 1.5 -2.8 -0.3 0 -0.9 -0.9 -1.5 -2.4 -1.5 -3 0 -5.6 -2.4 -5.6 -5.3 -0.1 -2.2 -0.1 -2.2 -1.5 -0.3 -1.4 1.8 -1.5 1.5 -1.6 -4 l0 -5.9 -2.3 5 c-1.3 2.8 -3.1 6.7 -4 8.8 -1.8 4.3 -4.3 5.8 -6 3.5 -0.6 -0.9 -2 -1.7 -3.1 -1.9 -1.3 -0.3 -3.2 -2.8 -5.5 -7.7 -3.4 -7 -5 -8.2 -5 -3.8 0 1.6 -0.5 1.3 -1.8 -1.4 l-1.7 -3.5 -0.3 8.5 c-0.3 7.8 -1.2 11 -3.3 11 -0.5 0 -0.9 -0.7 -0.9 -1.5z"/>
  <path d="M181.7 111.9 c-1.6 -0.9 -1.7 -3.8 -1.7 -34.2 0 -32.5 -0.1 -33.4 -2.2 -37.7 -1.3 -2.5 -3.8 -5.5 -5.7 -6.7 -3.4 -2.3 -3.8 -2.3 -37.2 -2.3 -29.4 0 -34 -0.2 -35.3 -1.6 -2.1 -2 -2 -2.7 0.3 -4.8 1.8 -1.6 4.8 -1.7 35.3 -1.4 29.4 0.3 33.8 0.5 37.3 2.1 5.5 2.5 9.3 6.3 12.1 12.2 2.4 5 2.4 5.3 2.4 39.2 0 31.8 -0.1 34.3 -1.8 35.2 -1.1 0.6 -2.4 0.6 -3.5 0z"/>
  <path d="M124.1 78.9 c-3.7 -1.5 -5 -3.9 -5.1 -9.2 0 -3.8 0.5 -5.3 2.5 -7.2 2.4 -2.5 2.5 -2.5 22.4 -2.5 l20 0 2 2.6 c3.1 3.9 2.9 11.7 -0.4 14.9 -2.4 2.5 -2.6 2.5 -20.7 2.4 -10.1 0 -19.4 -0.5 -20.7 -1z"/>
  <path d="M78.3 62.3 l-2.8 -8.7 -8.5 -2.6 c-8.3 -2.5 -8.5 -2.7 -8.8 -5.9 -0.2 -1.8 0.1 -3.8 0.7 -4.5 1.5 -1.8 12 -3.9 16.5 -3.4 l3.7 0.4 2.5 -8.4 c1.6 -5 3 -8.2 3.7 -7.9 0.7 0.2 2.2 3.7 3.3 7.8 l2.1 7.4 7.4 0.6 c4.1 0.4 8.9 1.2 10.7 1.9 2.8 1.1 3.2 1.6 3.2 5 0 2.2 -0.5 4.2 -1 4.5 -0.6 0.4 -4.5 1.6 -8.7 2.9 l-7.7 2.2 -2.6 8.4 -2.6 8.5 -4.1 0.3 -4.1 0.3 -2.9 -8.8z"/>
 </g>
 <g fill="#f66a7a">
  <path d="M40.5 222.7 c-2.8 -1.3 -6.3 -4 -7.8 -6 -5.4 -7.2 -5.7 -9.2 -5.7 -43.8 l0 -31.9 2.4 0 c1.6 0 2.7 0.7 3.1 2 0.9 2.9 3.5 2.5 3.5 -0.5 0 -1.6 0.6 -2.5 1.5 -2.5 0.8 0 1.5 -0.4 1.5 -1 0 -0.5 0.9 -1 2 -1 1.8 0 1.9 1 2.2 28.8 l0.3 28.9 3 4.8 c4.1 6.6 9.4 10.1 17.5 11.5 4.3 0.7 22.9 1 55.3 0.8 26.8 -0.2 48.7 0 48.7 0.4 0 1.3 -6.9 7.7 -10.3 9.5 -2.9 1.7 -7.8 1.8 -57.7 2.1 l-54.5 0.2 -5 -2.3z"/>
  <path d="M75.5 203.6 c-3.9 -1.7 -7 -5.2 -9 -9.8 -2.2 -5.5 -2.3 -53.8 0 -53.8 1 0 1.5 -1 1.5 -2.9 0 -3.1 1.4 -4.1 6 -4.1 2.1 0 2.9 0.6 3.4 2.5 0.6 2.4 3.6 3.6 3.6 1.5 0 -0.5 1.5 -1 3.4 -1 3.1 0 3.4 0.3 4 4 1 6.4 3.6 4.6 3.6 -2.6 0 -2.4 0.5 -3.4 1.5 -3.4 0.8 0 1.5 -0.4 1.5 -1 0 -0.5 0.9 -1 1.9 -1 1.8 0 1.9 0.5 1.4 6.8 -1.7 21.7 13.4 43.7 34.6 50.2 10.1 3.2 28.6 2.3 34.8 -1.6 1.2 -0.8 2.5 -1.4 2.8 -1.4 0.3 0 0.5 3.8 0.5 8.5 0 8.3 -0.1 8.6 -2.6 9.5 -4.2 1.6 -89.2 1.2 -92.9 -0.4z m5.5 -25.4 c0 -1.3 -1.2 -2.2 -2.2 -1.6 -1 0.6 -0.1 2.4 1.3 2.4 0.5 0 0.9 -0.4 0.9 -0.8z m0 -21.3 c0 -0.5 -0.7 -0.9 -1.5 -0.9 -1.5 0 -2 1.2 -0.9 2.3 0.8 0.8 2.4 -0.1 2.4 -1.4z"/>
  <path d="M57.2 201.5 c-6 -5 -6.2 -6.4 -6.2 -38.9 0 -31.4 -0.2 -30.3 4.7 -29 l2.2 0.6 0 30.1 0 30 2.5 4.9 c2.9 5.5 1.7 6.4 -3.2 2.3z"/>
  <path d="M144.5 183.4 c-1.1 -0.2 -4.5 -0.9 -7.5 -1.5 -6.2 -1.3 -13.6 -5.7 -19.4 -11.5 -9.3 -9.5 -13.9 -27.1 -10.2 -39.7 1.8 -6.3 4.6 -7.9 4.6 -2.7 0 2.7 0.3 3 3 3 l3 0 -0.2 7.8 c-0.1 6.4 0.3 8.7 2.5 13.4 5.2 11.5 17.1 19.8 28.2 19.8 9.6 0 21.9 -8.3 26.6 -17.9 4.4 -9.2 7.9 -5.2 6 6.9 -0.6 3.5 -0.8 6.6 -0.6 7 1.2 1.9 -12.6 11.8 -19.5 13.8 -4.2 1.3 -13.7 2.2 -16.5 1.6z"/>
  <path d="M249 155.1 c-1.3 -2.5 -1.3 -5.4 0 -6.7 0.5 -0.5 1.1 -5.9 1.2 -11.9 l0.3 -11 8.6 -0.5 c7.5 -0.4 9 -0.9 12.4 -3.4 5 -3.9 7.9 -10.4 7 -16.2 -0.5 -3.7 -0.4 -4.3 1 -3.8 2.6 1.1 6.5 8.7 6.5 13 -0.1 5.4 -3.1 11.6 -7.1 14.5 -2.8 1.9 -4.9 2.5 -11.4 2.8 -4.4 0.2 -8.6 0.8 -9.2 1.3 -0.9 0.7 -1.3 4.3 -1.3 11.2 0 6.6 -0.4 10.6 -1.2 11.4 -1.8 1.8 -5.6 1.4 -6.8 -0.7z"/>
  <path d="M318.8 155 c-2.1 -1.1 -4.2 -2.8 -4.7 -3.8 -0.8 -1.6 -0.3 -1.7 6.4 -1.4 6.6 0.3 7.7 0.1 11.4 -2.4 7.5 -4.9 8.6 -7.9 8.9 -24 0.1 -7.7 -0.2 -16.2 -0.7 -18.7 -1 -5.4 -0.1 -5.9 3.4 -2.1 3.6 3.9 4.7 11 4.3 27.4 -0.4 16.2 -1.5 19.9 -7.1 24.1 -4.5 3.4 -16.5 3.9 -21.9 0.9z"/>
  <path d="M431.2 155.8 c-1.7 -1.7 -1.5 -4 0.9 -11.9 l2.1 -6.9 8.9 0 c8.8 0 9 0.1 10 2.7 1.3 3.4 0 4.3 -6.2 4.3 -4.5 0 -4.7 0.1 -6.3 4 -0.9 2.2 -1.6 4.7 -1.6 5.5 0 2.8 -5.6 4.5 -7.8 2.3z"/>
  <path d="M462.8 153.8 c-1.3 -2.8 -1.3 -3.5 -0.2 -4.6 0.8 -0.7 1.4 -2.3 1.4 -3.5 0 -1.2 -3.4 -12.8 -7.5 -25.7 -4 -12.9 -7.2 -23.6 -7 -23.9 0.3 -0.2 1.6 0.1 2.9 0.7 2 0.9 3.1 3.1 5.6 11.4 1.8 5.7 5.4 17.5 8.1 26.2 2.8 8.8 4.9 17.4 4.7 19 -0.3 2.6 -0.8 3.1 -3.3 3.4 -2.6 0.3 -3.3 -0.2 -4.7 -3z"/>
  <path d="M497.3 155.8 c-1.6 -2 -2.3 -6.1 -1.3 -7.3 0.5 -0.6 1.1 -6 1.2 -12.1 l0.3 -10.9 2.6 -0.3 c2.1 -0.2 3.2 0.4 4.9 2.8 1.7 2.3 2 3.4 1.1 4.3 -0.6 0.6 -1.1 4.8 -1.1 10.2 0 5.2 -0.6 10 -1.3 11.5 -1.4 2.8 -4.8 3.8 -6.4 1.8z"/>
  <path d="M524.5 153.9 c-2.6 -3.1 -2.6 -3.2 -0.5 -4.6 3.2 -2.2 2.4 -5.2 -3.9 -14.7 -5.5 -8.3 -6.5 -11.5 -3.7 -11.7 4.6 -0.3 5.5 -0.9 6.1 -3.7 0.2 -1.1 1.1 -3.4 1.9 -5.1 1.8 -3.5 2 -7.8 0.6 -11.7 -1 -2.6 -1 -2.6 1.2 -1.2 9 6 8.9 20.6 -0.3 27.9 -2.1 1.7 -3.9 3.5 -3.9 4.1 0 0.6 2.3 4.4 5 8.5 5.6 8.4 6.8 11.6 5 13.8 -2 2.4 -4.6 1.8 -7.5 -1.6z"/>
  <path d="M568.5 156.2 c-3.1 -1.1 -7.5 -4.3 -7.5 -5.6 0 -0.8 2.1 -1 7 -0.8 8.2 0.5 12.5 -1.6 16.8 -8.1 2.6 -3.9 2.7 -4.7 3 -19.2 0.2 -8.4 -0.1 -16.9 -0.6 -18.9 -0.7 -2.3 -0.7 -3.6 -0.1 -3.6 2 0 5.8 4.8 6.8 8.6 1.4 4.9 1.4 31.7 0.1 36.4 -1.1 4.1 -6.1 9.4 -10.3 10.9 -3.1 1.2 -11.9 1.3 -15.2 0.3z"/>
  <path d="M620.3 155.8 c-1.6 -2 -2.1 -6.7 -0.9 -7.1 0.8 -0.3 1.1 -8.3 1.1 -26.5 l-0.1 -26.2 2.2 0 c5.2 0 5.4 1 5.4 30.1 0 16.7 -0.4 27.8 -1 29 -1.2 2.1 -5.2 2.6 -6.7 0.7z"/>
  <path d="M834.6 155.8 c-1 -3.3 -1.4 -7.6 -0.8 -8.3 0.4 -0.3 1.4 -2.7 2.3 -5.3 l1.6 -4.7 9 -0.3 9.1 -0.3 1 3.1 1.1 3 -5.3 0 c-5.9 0 -8 1.5 -9.1 6.5 -1.2 4.8 -3.3 7.5 -6.1 7.5 -1.3 0 -2.6 -0.6 -2.8 -1.2z"/>
  <path d="M866.5 153.9 c-1.5 -2.8 -1.5 -3.2 0.1 -5 2 -2.2 2.3 -1 -6.6 -29.2 -3.9 -12.6 -7 -23 -6.8 -23.2 0.2 -0.2 1.5 0.1 2.8 0.8 2.5 1.3 3.1 2.8 15.1 41.6 3.4 10.9 3.9 13.8 3 15.7 -1.6 3.6 -5.6 3.2 -7.6 -0.7z"/>
  <path d="M901.2 155.7 c-1.3 -1.5 -1.3 -3.3 -0.6 -15.6 0.5 -7.9 2.3 -13.1 4.5 -13.1 0.5 0 2.1 1.8 3.5 4 2.4 3.7 2.5 4.1 1.1 6.3 -0.8 1.3 -1.6 5.4 -1.9 10 -0.2 5.5 -0.8 8.1 -1.8 8.7 -2.1 1.3 -3.6 1.2 -4.8 -0.3z"/>
  <path d="M927.8 155.3 c-2.8 -3.3 -2.9 -4.2 -0.8 -6.3 1.3 -1.3 1.9 -2.8 1.5 -4 -0.7 -2.3 -15.4 -24.2 -16.8 -25.2 -1.5 -0.9 2.7 -6.7 11.1 -15.6 7 -7.2 9.8 -8.6 12.2 -5.7 1.7 2.1 0.4 5.1 -5.4 12.5 -2.9 3.6 -6.5 8.4 -8 10.7 l-2.8 4.2 2.8 4.6 c1.6 2.5 4.8 7.3 7.2 10.6 6.3 8.8 7.8 12.4 6.2 14.4 -1.7 2 -5.3 1.9 -7.2 -0.2z"/>
  <path d="M1022.2 155.8 c-1.2 -1.6 -1.7 -5.8 -0.9 -7.8 0.4 -0.8 0.8 -6.2 0.9 -12 l0.3 -10.5 2.7 -0.3 c2.2 -0.3 3.2 0.3 4.7 2.9 1.7 2.8 1.8 3.4 0.5 4.6 -1 1.1 -1.4 4.2 -1.4 12.3 0 8.9 -0.3 10.9 -1.6 11.4 -2.4 0.9 -4.1 0.7 -5.2 -0.6z"/>
  <path d="M1049.6 154.8 c-2 -2.8 -2 -4.2 -0.1 -5.8 2.5 -2.1 1.7 -4.6 -4.6 -14.5 -5.9 -9.1 -6.1 -9.7 -4.3 -11 1.1 -0.8 2.5 -1.2 3.2 -1 1.5 0.6 5.5 -3.2 4.7 -4.5 -0.3 -0.5 0.1 -2.3 1 -3.9 1.7 -3.5 2 -9.4 0.4 -12.2 -0.9 -1.9 -0.9 -1.9 1 -1 3.4 1.9 6.4 7.1 6.9 12.1 0.6 6.1 -2.3 12.8 -7.2 16.5 -2 1.5 -3.6 3.1 -3.6 3.6 0 0.5 2.3 4.3 5 8.5 2.8 4.3 5.3 8.8 5.6 10.1 1.3 4.9 -5 7.4 -8 3.1z"/>
  <path d="M373 154.1 c-2.6 -4.9 -1.9 -5.2 11.2 -5 8.6 0.2 12.3 -0.1 12.6 -0.9 0.4 -1.3 4.8 -0.6 7 1.1 0.7 0.6 1.2 2.2 1 3.6 l-0.3 2.6 -15.2 0.3 c-14.2 0.2 -15.3 0.1 -16.3 -1.7z"/>
  <path d="M653.7 154.2 c-1 -1 -1.7 -2.6 -1.7 -3.6 0 -1.5 1.1 -1.6 8.8 -1.4 8.1 0.2 9 0 12.9 -2.6 2.6 -1.7 5 -4.5 6.3 -7.2 2 -4 2.1 -5.7 1.8 -21.9 -0.2 -9.6 0 -17.5 0.3 -17.5 0.9 0 4.5 4.2 5.8 6.7 1.6 3.1 1.8 33.7 0.3 38.4 -1.4 4.1 -5.5 8.3 -9.5 9.8 -1.6 0.6 -7.5 1.1 -13.1 1.1 -8.7 0 -10.5 -0.3 -11.9 -1.8z"/>
  <path d="M757.3 154.8 c-1.4 -1.8 -2.2 -6.7 -1.2 -7.4 0.5 -0.3 0.9 -6.5 0.9 -13.8 0 -7.3 0.3 -13.6 0.7 -13.9 0.9 -1 8 13.6 7.1 14.8 -0.5 0.5 -0.8 5.3 -0.8 10.6 0 7.9 -0.3 9.8 -1.6 10.3 -2.4 0.9 -4.1 0.7 -5.1 -0.6z"/>
  <path d="M778.5 153 c-1.5 -2.9 -1.5 -3.3 0 -5 0.9 -0.9 2.4 -3.9 3.4 -6.6 3.3 -8.7 9.2 -21.9 10.2 -22.9 0.5 -0.5 0.9 3.6 0.8 11 -0.1 11.7 -0.2 12.1 -3.8 19 -2.9 5.7 -4.1 7.1 -6.3 7.3 -2.2 0.3 -3 -0.3 -4.3 -2.8z"/>
  <path d="M802.3 154.8 c-1.4 -1.8 -2.2 -6.7 -1.2 -7.4 0.5 -0.3 0.9 -11.7 0.9 -25.5 l0 -24.9 2.4 0 c4.5 0 4.7 1.2 4.6 29.4 0 14.6 -0.3 27.2 -0.6 28.1 -0.7 1.8 -4.8 2 -6.1 0.3z"/>
  <path d="M961.2 154.8 c-0.6 -0.6 -1.2 -2.3 -1.2 -3.6 l0 -2.3 13 0.2 c7.2 0.1 13.3 -0.1 13.7 -0.4 1.2 -1.3 7 -0.7 8.3 0.7 0.6 0.8 1 2.5 0.8 3.8 -0.3 2.3 -0.4 2.3 -16.8 2.6 -12 0.2 -16.9 -0.1 -17.8 -1z"/>
  <path d="M315.9 140.3 c-3.1 -0.8 -3.9 -5.1 -3.9 -21.8 l0 -16.4 2.6 -2 c1.5 -1.2 4 -2.1 5.6 -2.1 3.5 0 9.8 2.5 9.8 3.9 0 0.6 0 1.4 0.1 1.8 0 0.4 -1.6 1.2 -3.7 1.8 -6.6 1.8 -7.3 4 -7.5 20.8 0 8.1 -0.4 14.6 -0.7 14.6 -0.4 -0.1 -1.4 -0.3 -2.3 -0.6z"/>
  <path d="M376.3 140.3 l-3.3 -0.4 0 -21.8 0 -21.8 3.1 0.5 c1.7 0.2 3.3 1 3.5 1.6 0.6 1.6 1 42.6 0.4 42.4 -0.3 0 -2 -0.3 -3.7 -0.5z"/>
  <path d="M562.9 140.3 c-3.1 -0.7 -3.9 -5.1 -3.9 -21.4 0 -15.6 0.1 -16 2.5 -18.4 3.9 -4 14.1 -2.7 15.9 2.1 0.8 2.2 0.5 2.4 -3.5 2.9 -6.6 0.9 -7.3 2.8 -7.9 19.4 -0.3 8.2 -0.7 15.1 -1 15.3 -0.3 0.3 -1.2 0.3 -2.1 0.1z"/>
  <path d="M656.2 140.2 l-3.2 -0.3 0.2 -20.2 0.3 -20.2 7.3 -0.3 c6.6 -0.3 7.4 -0.1 9.7 2.2 1.4 1.4 2.5 3 2.5 3.5 0 0.6 -2.6 1.1 -5.7 1.3 l-5.8 0.3 -0.7 16.8 c-0.3 9.3 -0.8 16.9 -1 17 -0.2 0.1 -1.8 0.1 -3.6 -0.1z"/>
  <path d="M962.3 140.3 c-1.5 -0.5 -1.8 -13 -0.4 -15.1 0.5 -0.9 3 -1.3 8.4 -1.1 4.2 0.1 8.2 -0.3 8.9 -0.8 1.6 -1.2 7.4 0.2 8.1 2 0.2 0.6 0.1 2.2 -0.4 3.5 -0.8 2 -1.5 2.2 -8.8 2.2 -8.8 0 -9.7 0.6 -9.6 6.6 0.1 2.6 -0.3 3.1 -2.5 3.1 -1.4 0 -3.1 -0.2 -3.7 -0.4z"/>
  <path d="M772.5 127.8 c-1 -2.4 -4.2 -9.7 -7.2 -16.2 -2.9 -6.6 -5.3 -12.6 -5.3 -13.3 0 -2.5 3.8 0.5 5.9 4.5 2 4 8.6 20.3 9.6 24 0.4 1.2 1.1 2 1.6 1.7 1.3 -0.9 1.1 0.9 -0.3 2.3 -1.8 1.8 -2.3 1.5 -4.3 -3z"/>
  <path d="M437.9 127.5 c-0.9 -0.8 4.5 -16.5 5.5 -16.2 1 0.3 5.6 13 5.6 15.4 0 0.9 -1.6 1.3 -5.3 1.3 -3 0 -5.6 -0.2 -5.8 -0.5z"/>
  <path d="M841 127.3 c0 -2.1 4.9 -15.8 5.7 -16 0.7 -0.3 4.4 9 6.1 15.5 0.3 0.8 -1.4 1.2 -5.7 1.2 -3.4 0 -6.1 -0.3 -6.1 -0.7z"/>
  <path d="M253.3 116.2 l-3.3 -0.3 0 -8.5 0 -8.4 6.9 0 c5.9 0 7.4 0.4 9.8 2.4 1.5 1.3 2.5 2.8 2.1 3.2 -0.4 0.4 -3 0.9 -5.8 1.2 -5.4 0.5 -5.6 0.8 -6.2 7.7 -0.3 2.7 -0.6 3 -3.5 2.7z"/>
  <path d="M500.7 116.3 l-3.8 -0.4 0.3 -8.2 0.3 -8.2 5.9 -0.3 c6.6 -0.3 10.5 0.9 12.3 3.8 1.1 1.7 0.8 1.9 -4.5 2.6 -3.1 0.4 -5.9 1.1 -6.3 1.5 -0.3 0.5 -0.4 2.9 -0.4 5.4 0.1 2.5 0.2 4.4 0.1 4.3 -0.1 -0.1 -1.8 -0.3 -3.9 -0.5z"/>
  <path d="M1025.2 116.2 l-3.3 -0.3 0.3 -8.2 0.3 -8.2 5.4 -0.3 c6.5 -0.4 9.4 0.2 11.5 2.4 3.1 3.1 2 4.4 -3.9 4.4 -5.9 0 -6.1 0.2 -6.7 7.5 -0.3 2.7 -0.6 3 -3.6 2.7z"/>
  <path d="M964.7 115.3 l-3.8 -0.4 0.3 -7.7 0.3 -7.7 12 -0.3 c6.6 -0.1 12.7 -0.5 13.5 -0.9 4.5 -2 9 -0.5 9 3 0 4.2 -1.7 4.7 -14.7 4.7 -9.1 0 -12.3 0.3 -12.4 1.3 -0.1 0.6 0 2.9 0.1 5 0.1 2 0 3.6 -0.2 3.5 -0.2 -0.1 -2 -0.3 -4.1 -0.5z"/>
  <path d="M901.6 113.9 c-0.3 -0.8 -0.6 -4.9 -0.8 -9.2 l-0.3 -7.7 2.6 0 c3.2 0 4.4 1.4 5.2 5.8 0.6 2.8 0.1 4.1 -2.8 7.9 -2.2 2.9 -3.6 4.1 -3.9 3.2z"/>
 </g>
 <g fill="#f98d6c">
  <path d="M74 147.5 c0 -1.9 -5.1 -2.9 -6.2 -1.3 -2.2 3.5 -2.7 -3.8 -2.8 -42.9 0 -22.7 -0.3 -41.9 -0.6 -42.8 -0.3 -0.8 -1.4 -1.5 -2.3 -1.5 -4.3 0.1 -4.2 -0.1 -4.2 39.7 l0 38.1 -2.7 0.5 c-1.5 0.3 -3 0 -3.4 -0.6 -0.4 -0.7 -0.8 -22.1 -0.8 -47.7 0 -43.3 0.1 -46.7 1.8 -49.5 l1.9 -3 11.7 0.3 c6.4 0.2 11.4 0.7 11.1 1.1 -0.2 0.5 -3.5 1.7 -7.2 2.6 -3.8 1 -7.4 2.4 -8.2 3.1 -1.7 1.6 -2.1 1.4 8.9 4.7 l7.5 2.3 2.8 8.7 c1.7 5.2 3.3 8.7 4 8.4 0.6 -0.2 2.3 -4.1 3.7 -8.7 l2.6 -8.4 7.7 -2.2 c12.3 -3.6 12.6 -4.5 2.5 -7.4 -4 -1.2 -8.2 -2.5 -9.3 -3 -1.2 -0.5 10.4 -0.9 28.2 -0.9 28.2 -0.1 30.6 0 35.7 2 6.3 2.3 12 8.1 13.6 13.8 0.6 2 1 16.9 1 33.7 0 22 0.3 30.3 1.2 31.2 2.6 2.6 -4.8 1.1 -9.1 -1.8 -8 -5.4 -14.7 -6.2 -23.6 -2.9 -9.2 3.4 -14.9 8.7 -19.2 17.9 -3.8 8 -6.9 10.8 -5.8 5.3 0.3 -1.6 0.2 -2.2 -0.1 -1.5 -0.3 0.6 -1.2 1.2 -1.9 1.2 -0.7 0 -1.6 1.4 -2 3 -0.7 3.3 -2.5 4.1 -2.5 1.1 0 -1.1 -0.5 -2.1 -1.2 -2.3 -0.9 -0.3 -0.9 -1.1 0 -3.4 0.6 -1.6 1.3 -4.1 1.6 -5.5 1.5 -9 13.2 -22.1 23 -25.8 10.4 -3.9 17.1 -4.2 30.6 -1.6 6.7 1.3 8.1 -5.2 1.7 -7.5 -5.7 -2.1 -19.5 -2.4 -26.7 -0.6 -20.9 5.3 -33.6 18.7 -38.4 40.9 -0.4 1.5 -1.3 2.7 -2.1 2.7 -1 0 -1.5 1.1 -1.5 3.3 0 6.5 -0.7 7.4 -5.6 7.4 -3.9 0 -4.5 -0.3 -4.1 -1.9 0.3 -1 0.1 -1.8 -0.3 -1.8 -0.5 0 -1 1 -1.2 2.2 -0.3 1.8 -1 2.2 -5 2.4 -3.3 0.1 -4.8 -0.2 -4.8 -1.1z m7 -4.9 c0 -0.2 -1.1 -0.6 -2.5 -0.8 -1.4 -0.3 -2.5 -0.1 -2.5 0.3 0 0.5 1.1 0.9 2.5 0.9 1.4 0 2.5 -0.2 2.5 -0.4z m0 -6.8 c0 -0.5 -0.7 -0.8 -1.5 -0.8 -1.7 0 -1.8 0.2 -0.9 2.5 0.5 1.3 0.8 1.4 1.5 0.3 0.5 -0.7 0.9 -1.6 0.9 -2z m-0.5 -20.8 c-0.5 -0.8 -1.1 -0.8 -1.7 -0.2 -0.6 0.6 -0.7 1.6 -0.3 2.2 0.5 0.8 1.1 0.8 1.7 0.2 0.6 -0.6 0.7 -1.6 0.3 -2.2z m0.5 -20.1 c0 -0.5 -0.7 -0.9 -1.5 -0.9 -1.5 0 -2 1.2 -0.9 2.3 0.8 0.8 2.4 -0.1 2.4 -1.4z m81.5 -20.4 c3 -3 3.1 -5.4 0.4 -8.9 l-2 -2.6 -17 0 c-16.7 0 -17 0 -19.4 2.5 -2.8 2.7 -3.1 5.1 -1.1 7.7 2.3 3.1 5.8 3.7 21.4 3.7 14.9 0.1 15.3 0 17.7 -2.4z m-28.5 -30.6 c0 -0.5 -0.7 -0.9 -1.5 -0.9 -1.5 0 -2 1.2 -0.9 2.3 0.8 0.8 2.4 -0.1 2.4 -1.4z m20.2 0.6 c0 -0.5 -0.5 -1.1 -1.1 -1.3 -0.6 -0.2 -1.1 0.4 -1.1 1.3 0 0.9 0.5 1.5 1.1 1.3 0.6 -0.2 1.1 -0.8 1.1 -1.3z"/>
  <path d="M29.5 145.9 c-0.6 -1.7 -0.9 -1.9 -1.6 -0.8 -0.6 0.8 -0.8 -17.4 -0.7 -45.1 0.3 -45.4 0.3 -46.6 2.5 -50.5 2.4 -4.6 5.5 -7.6 10 -9.9 4.6 -2.3 5.4 -2.1 4.3 1 -0.6 1.5 -1 22 -1 51.2 0 26.8 -0.4 49.2 -0.8 49.8 -0.4 0.6 -1.4 1.4 -2.2 1.7 -1 0.4 -0.8 0.6 0.8 0.6 2.7 0.1 3 2.1 0.2 2.1 -1.1 0 -2 0.5 -2 1 0 0.6 -2 1 -4.4 1 -3.7 0 -4.6 -0.4 -5.1 -2.1z"/>
 </g>
 <g fill="#364ca2">
  <path d="M75.2 181 c-0.6 -1.1 -1.2 -2.9 -1.2 -3.9 0 -2.2 3.5 -5.1 6.1 -5.1 2.2 0 4.9 3.2 4.9 5.8 0 4.8 -7.3 7.2 -9.8 3.2z"/>
  <path d="M135.1 172.8 c-6.9 -2.6 -14.3 -9.9 -17.9 -17.6 -2.2 -4.6 -2.6 -7.2 -2.7 -13.7 0 -7.1 0.4 -8.8 3.3 -14.8 3.9 -8 10.1 -13.4 18.9 -16.7 4.7 -1.8 7.3 -2.1 13.8 -1.8 13 0.7 21.1 6.2 27.2 18.5 3.5 7 3.8 8.4 3.8 15.8 0 6.9 -0.4 8.9 -2.9 13.8 -3.6 7.1 -9.9 13.1 -17.2 16.3 -7.2 3.2 -18.4 3.3 -26.3 0.2z m15 -10.5 c3.3 -9.3 9 -15.2 17.1 -17.9 2.7 -0.9 4.7 -2.1 4.5 -2.7 -0.2 -0.6 -2.3 -1.7 -4.8 -2.5 -7.1 -2.4 -11.6 -6.6 -15.2 -14.3 -1.7 -3.8 -3.5 -6.9 -3.9 -6.9 -0.3 0 -0.9 1.3 -1.3 2.9 -1.7 7.6 -9.5 15.6 -18.2 18.6 -5 1.7 -5.2 3.2 -0.6 4.4 2.1 0.6 5.9 2.4 8.5 4 3.7 2.4 5.2 4.3 7.9 10 1.9 3.8 3.7 7 4.2 7 0.4 0.1 1.2 -1.1 1.8 -2.6z"/>
  <path d="M76 161 c-2.6 -2.6 -2.5 -5.4 0.2 -8 2.7 -2.5 4.3 -2.5 6.8 0 2.7 2.7 2.6 6.5 -0.2 8.4 -3 2.1 -4.4 2 -6.8 -0.4z"/>
  <path d="M75.7 140.2 c-3.4 -3.7 -1.1 -9.2 3.8 -9.2 5 0 7.3 6 3.7 9.3 -2.4 2.2 -5.5 2.1 -7.5 -0.1z"/>
  <path d="M75 119 c-1.7 -3.2 -0.8 -6.3 2.2 -8 4.6 -2.5 9 1.6 7.2 6.7 -0.8 2.3 -1.6 2.9 -4.6 3.1 -2.9 0.2 -3.9 -0.1 -4.8 -1.8z"/>
  <path d="M76 99 c-3.6 -3.6 -1.6 -9 3.5 -9 5.2 0 7.4 6.5 3.3 9.4 -3 2.1 -4.4 2 -6.8 -0.4z"/>
  <path d="M129.2 48.4 c-2.8 -2 -3 -6.9 -0.3 -8.4 4.3 -2.2 9.1 -0.1 9.1 4.1 0 2.1 -3.3 5.9 -5.3 5.9 -0.7 0 -2.3 -0.7 -3.5 -1.6z"/>
  <path d="M149 47.8 c-2.4 -2.6 -2.5 -3.7 -0.4 -6.6 2.9 -4.2 10.4 -1.7 10.4 3.5 0 2 -3.8 5.3 -6 5.3 -1 0 -2.8 -1 -4 -2.2z"/>
 </g>
</svg>